%
M48
M72
T01C0.0236
T02C0.0320
T03C0.0360
T04C0.0400
T05C0.0472
T06C0.1260
%
T01
X7101Y3304
X12101Y10304
X10701Y13504
X10001Y13704
X11201Y14504
X12001Y15204
X11801Y17304
X15301Y14604
X6801Y12004
X6001Y12304
X5201Y13504
X5401Y14204
X5601Y15704
X2201Y14804
X1101Y14804
X2201Y11704
X15401Y2804
T02
X11601Y3604
X10601Y3604
X9601Y3604
X8601Y3604
X8601Y6604
X9601Y6604
X10601Y6604
X11601Y6604
X13301Y9404
X13301Y10404
X13301Y11404
X13301Y12404
X13301Y13404
X13301Y14404
X13301Y15404
X13301Y16404
X13301Y17404
X14801Y16004
X16301Y16404
X16301Y17404
X17901Y16504
X18901Y16504
X16301Y15404
X16301Y14404
X16301Y13404
X16301Y12404
X16301Y11404
X16301Y10404
X16301Y9404
X14801Y10804
X14801Y12804
X14801Y14004
X17901Y13504
X18901Y13504
X18201Y11404
X18201Y10504
X18201Y9604
X11701Y15904
X10201Y16504
X10201Y17404
X10201Y18304
X11701Y18904
X14351Y19304
X16251Y19304
X8201Y18904
X6701Y18304
X6701Y17404
X6701Y16504
X8201Y15904
X4701Y15904
X3201Y16504
X3201Y17404
X3201Y18304
X4701Y18904
X4101Y14004
X4201Y12504
X5201Y12504
X4301Y10904
X3401Y10904
X2501Y10904
X1901Y9504
X2501Y7804
X3401Y7804
X4301Y7804
X4901Y6404
X4301Y4704
X3401Y4704
X2501Y4704
X1901Y3304
X4901Y3304
X1901Y6404
X4901Y9504
X3201Y12504
X2201Y12504
X1201Y12504
X1101Y14004
T03
X3601Y14904
X7101Y14904
X10601Y14904
X5901Y10604
X5901Y7504
X5901Y4404
X901Y4404
X901Y7504
X901Y10604
X3601Y19904
X7101Y19904
X10601Y19904
T04
X11601Y12504
X11601Y11504
X11601Y9504
X11601Y8504
X13901Y8004
X14901Y8004
X14901Y7004
X14901Y6004
X14901Y5004
X14901Y4004
X13901Y4004
X13901Y5004
X13901Y6004
X13901Y7004
X14101Y1504
X15101Y1504
X16101Y1504
X8601Y8504
X8601Y9504
X8601Y11504
X8601Y12504
X6101Y1504
X5101Y1504
X4101Y1504
T05
X8201Y1404
X12201Y1404
T06
X1351Y1754
X1351Y19254
X18851Y19254
X18851Y1754
M30
