G75*
G70*
%OFA0B0*%
%FSLAX24Y24*%
%IPPOS*%
%LPD*%
%AMOC8*
5,1,8,0,0,1.08239X$1,22.5*
%
%ADD10C,0.1340*%
%ADD11C,0.0600*%
%ADD12C,0.0600*%
%ADD13OC8,0.0710*%
%ADD14OC8,0.0600*%
%ADD15C,0.0680*%
%ADD16OC8,0.0680*%
%ADD17C,0.0710*%
%ADD18C,0.0789*%
%ADD19OC8,0.0930*%
%ADD20OC8,0.0640*%
%ADD21C,0.0476*%
D10*
X001351Y001754D03*
X001351Y019254D03*
X018851Y019254D03*
X018851Y001754D03*
D11*
X011601Y003344D02*
X011601Y003864D01*
X010601Y003864D02*
X010601Y003344D01*
X009601Y003344D02*
X009601Y003864D01*
X008601Y003864D02*
X008601Y003344D01*
X008601Y006344D02*
X008601Y006864D01*
X009601Y006864D02*
X009601Y006344D01*
X010601Y006344D02*
X010601Y006864D01*
X011601Y006864D02*
X011601Y006344D01*
X013041Y009404D02*
X013561Y009404D01*
X013561Y010404D02*
X013041Y010404D01*
X013041Y011404D02*
X013561Y011404D01*
X013561Y012404D02*
X013041Y012404D01*
X013041Y013404D02*
X013561Y013404D01*
X013561Y014404D02*
X013041Y014404D01*
X013041Y015404D02*
X013561Y015404D01*
X013561Y016404D02*
X013041Y016404D01*
X013041Y017404D02*
X013561Y017404D01*
X016041Y017404D02*
X016561Y017404D01*
X016561Y016404D02*
X016041Y016404D01*
X016041Y015404D02*
X016561Y015404D01*
X016561Y014404D02*
X016041Y014404D01*
X016041Y013404D02*
X016561Y013404D01*
X016561Y012404D02*
X016041Y012404D01*
X016041Y011404D02*
X016561Y011404D01*
X016561Y010404D02*
X016041Y010404D01*
X016041Y009404D02*
X016561Y009404D01*
D12*
X016251Y019304D03*
X014351Y019304D03*
D13*
X014801Y016004D03*
X014801Y014004D03*
X014801Y012804D03*
X014801Y010804D03*
X018901Y013504D03*
X018901Y016504D03*
X005201Y012504D03*
X004201Y012504D03*
X003201Y012504D03*
X002201Y012504D03*
X001201Y012504D03*
D14*
X001101Y014004D03*
X003201Y016504D03*
X003201Y017404D03*
X003201Y018304D03*
X004701Y018904D03*
X006701Y018304D03*
X006701Y017404D03*
X006701Y016504D03*
X008201Y015904D03*
X010201Y016504D03*
X010201Y017404D03*
X010201Y018304D03*
X011701Y018904D03*
X011701Y015904D03*
X008201Y018904D03*
X004701Y015904D03*
X004101Y014004D03*
X004301Y010904D03*
X003401Y010904D03*
X002501Y010904D03*
X001901Y009504D03*
X002501Y007804D03*
X003401Y007804D03*
X004301Y007804D03*
X004901Y006404D03*
X004301Y004704D03*
X003401Y004704D03*
X002501Y004704D03*
X001901Y003304D03*
X004901Y003304D03*
X001901Y006404D03*
X004901Y009504D03*
X018201Y009604D03*
X018201Y010504D03*
X018201Y011404D03*
D15*
X016101Y001804D02*
X016101Y001204D01*
X015101Y001204D02*
X015101Y001804D01*
X014101Y001804D02*
X014101Y001204D01*
X006101Y001204D02*
X006101Y001804D01*
X005101Y001804D02*
X005101Y001204D01*
X004101Y001204D02*
X004101Y001804D01*
D16*
X013901Y004004D03*
X014901Y004004D03*
X014901Y005004D03*
X014901Y006004D03*
X014901Y007004D03*
X014901Y008004D03*
X013901Y008004D03*
X013901Y007004D03*
X013901Y006004D03*
X013901Y005004D03*
D17*
X017901Y013504D03*
X017901Y016504D03*
D18*
X012201Y001404D03*
X008201Y001404D03*
D19*
X008601Y008504D03*
X008601Y009504D03*
X008601Y011504D03*
X008601Y012504D03*
X011601Y012504D03*
X011601Y011504D03*
X011601Y009504D03*
X011601Y008504D03*
D20*
X005901Y007504D03*
X005901Y010604D03*
X007101Y014904D03*
X010601Y014904D03*
X010601Y019904D03*
X007101Y019904D03*
X003601Y019904D03*
X003601Y014904D03*
X000901Y010604D03*
X000901Y007504D03*
X000901Y004404D03*
X005901Y004404D03*
D21*
X007101Y003304D03*
X012101Y010304D03*
X010701Y013504D03*
X010001Y013704D03*
X011201Y014504D03*
X012001Y015204D03*
X011801Y017304D03*
X015301Y014604D03*
X006801Y012004D03*
X006001Y012304D03*
X005201Y013504D03*
X005401Y014204D03*
X005601Y015704D03*
X002201Y014804D03*
X001101Y014804D03*
X002201Y011704D03*
X015401Y002804D03*
M02*
