G75*
G70*
%OFA0B0*%
%FSLAX24Y24*%
%IPPOS*%
%LPD*%
%AMOC8*
5,1,8,0,0,1.08239X$1,22.5*
%
%ADD10C,0.0160*%
%ADD11C,0.0120*%
%ADD12C,0.0060*%
%ADD13C,0.0050*%
%ADD14C,0.0200*%
%ADD15R,0.0750X0.0500*%
%ADD16R,0.0700X0.0300*%
%ADD17R,0.0300X0.0500*%
%ADD18C,0.0100*%
%ADD19C,0.0040*%
%ADD20R,0.0300X0.0110*%
%ADD21R,0.0110X0.0300*%
D10*
X007601Y008004D02*
X007601Y013004D01*
X012601Y013004D01*
X012601Y008004D01*
X007601Y008004D01*
D11*
X014551Y011684D02*
X014801Y011684D01*
X015051Y011684D01*
X015051Y011934D02*
X014801Y011934D01*
X014551Y011934D01*
X014551Y014874D02*
X014801Y014874D01*
X015051Y014874D01*
X015051Y015124D02*
X014801Y015124D01*
X014551Y015124D01*
D12*
X014801Y015124D02*
X014801Y015604D01*
X014801Y014874D02*
X014801Y014404D01*
X015501Y013654D02*
X015499Y013637D01*
X015495Y013620D01*
X015488Y013604D01*
X015478Y013590D01*
X015465Y013577D01*
X015451Y013567D01*
X015435Y013560D01*
X015418Y013556D01*
X015401Y013554D01*
X014201Y013554D01*
X014184Y013556D01*
X014167Y013560D01*
X014151Y013567D01*
X014137Y013577D01*
X014124Y013590D01*
X014114Y013604D01*
X014107Y013620D01*
X014103Y013637D01*
X014101Y013654D01*
X014101Y016354D01*
X014103Y016371D01*
X014107Y016388D01*
X014114Y016404D01*
X014124Y016418D01*
X014137Y016431D01*
X014151Y016441D01*
X014167Y016448D01*
X014184Y016452D01*
X014201Y016454D01*
X015401Y016454D01*
X015418Y016452D01*
X015435Y016448D01*
X015451Y016441D01*
X015465Y016431D01*
X015478Y016418D01*
X015488Y016404D01*
X015495Y016388D01*
X015499Y016371D01*
X015501Y016354D01*
X015501Y013654D01*
X015401Y013254D02*
X014201Y013254D01*
X014184Y013252D01*
X014167Y013248D01*
X014151Y013241D01*
X014137Y013231D01*
X014124Y013218D01*
X014114Y013204D01*
X014107Y013188D01*
X014103Y013171D01*
X014101Y013154D01*
X014101Y010454D01*
X014103Y010437D01*
X014107Y010420D01*
X014114Y010404D01*
X014124Y010390D01*
X014137Y010377D01*
X014151Y010367D01*
X014167Y010360D01*
X014184Y010356D01*
X014201Y010354D01*
X015401Y010354D01*
X015418Y010356D01*
X015435Y010360D01*
X015451Y010367D01*
X015465Y010377D01*
X015478Y010390D01*
X015488Y010404D01*
X015495Y010420D01*
X015499Y010437D01*
X015501Y010454D01*
X015501Y013154D01*
X015499Y013171D01*
X015495Y013188D01*
X015488Y013204D01*
X015478Y013218D01*
X015465Y013231D01*
X015451Y013241D01*
X015435Y013248D01*
X015418Y013252D01*
X015401Y013254D01*
X014801Y012404D02*
X014801Y011934D01*
X014801Y011684D02*
X014801Y011204D01*
X012051Y011254D02*
X012051Y011054D01*
X011851Y011054D01*
X011351Y011054D02*
X011151Y011054D01*
X011151Y011254D01*
X011151Y011754D02*
X011151Y011954D01*
X011351Y011954D01*
X011351Y012054D02*
X011151Y012054D01*
X011151Y012254D01*
X011151Y012754D02*
X011151Y012954D01*
X011351Y012954D01*
X011851Y012954D02*
X012051Y012954D01*
X012051Y012754D01*
X012051Y012254D02*
X012051Y012054D01*
X011851Y012054D01*
X011851Y011954D02*
X012051Y011954D01*
X012051Y011754D01*
X012051Y009954D02*
X011851Y009954D01*
X012051Y009954D02*
X012051Y009754D01*
X012051Y009254D02*
X012051Y009054D01*
X011851Y009054D01*
X011851Y008954D02*
X012051Y008954D01*
X012051Y008754D01*
X012051Y008254D02*
X012051Y008054D01*
X011851Y008054D01*
X011351Y008054D02*
X011151Y008054D01*
X011151Y008254D01*
X011151Y008754D02*
X011151Y008954D01*
X011351Y008954D01*
X011351Y009054D02*
X011151Y009054D01*
X011151Y009254D01*
X011151Y009754D02*
X011151Y009954D01*
X011351Y009954D01*
X009051Y009954D02*
X009051Y009754D01*
X009051Y009954D02*
X008851Y009954D01*
X008351Y009954D02*
X008151Y009954D01*
X008151Y009754D01*
X008151Y009254D02*
X008151Y009054D01*
X008351Y009054D01*
X008351Y008954D02*
X008151Y008954D01*
X008151Y008754D01*
X008151Y008254D02*
X008151Y008054D01*
X008351Y008054D01*
X008851Y008054D02*
X009051Y008054D01*
X009051Y008254D01*
X009051Y008754D02*
X009051Y008954D01*
X008851Y008954D01*
X008851Y009054D02*
X009051Y009054D01*
X009051Y009254D01*
X009051Y011054D02*
X008851Y011054D01*
X009051Y011054D02*
X009051Y011254D01*
X009051Y011754D02*
X009051Y011954D01*
X008851Y011954D01*
X008851Y012054D02*
X009051Y012054D01*
X009051Y012254D01*
X009051Y012754D02*
X009051Y012954D01*
X008851Y012954D01*
X008351Y012954D02*
X008151Y012954D01*
X008151Y012754D01*
X008151Y012254D02*
X008151Y012054D01*
X008351Y012054D01*
X008351Y011954D02*
X008151Y011954D01*
X008151Y011754D01*
X008151Y011254D02*
X008151Y011054D01*
X008351Y011054D01*
X005501Y012204D02*
X005501Y012304D01*
X005501Y012204D02*
X005401Y012204D01*
X005001Y012204D02*
X004901Y012204D01*
X004901Y012304D01*
X004901Y012704D02*
X004901Y012804D01*
X005001Y012804D01*
X005401Y012804D02*
X005501Y012804D01*
X005501Y012704D01*
X004501Y012704D02*
X004501Y012804D01*
X004401Y012804D01*
X004001Y012804D02*
X003901Y012804D01*
X003901Y012704D01*
X003901Y012304D02*
X003901Y012204D01*
X004001Y012204D01*
X004401Y012204D02*
X004501Y012204D01*
X004501Y012304D01*
X005001Y011404D02*
X004951Y011354D01*
X001851Y011354D01*
X001801Y011404D01*
X001551Y011404D01*
X001528Y011402D01*
X001505Y011397D01*
X001483Y011388D01*
X001463Y011375D01*
X001445Y011360D01*
X001430Y011342D01*
X001417Y011322D01*
X001408Y011300D01*
X001403Y011277D01*
X001401Y011254D01*
X001401Y009954D01*
X001403Y009931D01*
X001408Y009908D01*
X001417Y009886D01*
X001430Y009866D01*
X001445Y009848D01*
X001463Y009833D01*
X001483Y009820D01*
X001505Y009811D01*
X001528Y009806D01*
X001551Y009804D01*
X001801Y009804D01*
X001851Y009854D01*
X004951Y009854D01*
X005001Y009804D01*
X005251Y009804D01*
X005274Y009806D01*
X005297Y009811D01*
X005319Y009820D01*
X005339Y009833D01*
X005357Y009848D01*
X005372Y009866D01*
X005385Y009886D01*
X005394Y009908D01*
X005399Y009931D01*
X005401Y009954D01*
X005401Y011254D01*
X005399Y011277D01*
X005394Y011300D01*
X005385Y011322D01*
X005372Y011342D01*
X005357Y011360D01*
X005339Y011375D01*
X005319Y011388D01*
X005297Y011397D01*
X005274Y011402D01*
X005251Y011404D01*
X005001Y011404D01*
X003501Y012204D02*
X003501Y012304D01*
X003501Y012204D02*
X003401Y012204D01*
X003001Y012204D02*
X002901Y012204D01*
X002901Y012304D01*
X002901Y012704D02*
X002901Y012804D01*
X003001Y012804D01*
X003401Y012804D02*
X003501Y012804D01*
X003501Y012704D01*
X002501Y012704D02*
X002501Y012804D01*
X002401Y012804D01*
X002001Y012804D02*
X001901Y012804D01*
X001901Y012704D01*
X001901Y012304D02*
X001901Y012204D01*
X002001Y012204D01*
X002401Y012204D02*
X002501Y012204D01*
X002501Y012304D01*
X001501Y012304D02*
X001501Y012204D01*
X001401Y012204D01*
X001001Y012204D02*
X000901Y012204D01*
X000901Y012304D01*
X000901Y012704D02*
X000901Y012804D01*
X001001Y012804D01*
X001401Y012804D02*
X001501Y012804D01*
X001501Y012704D01*
X002951Y015404D02*
X004251Y015404D01*
X004274Y015406D01*
X004297Y015411D01*
X004319Y015420D01*
X004339Y015433D01*
X004357Y015448D01*
X004372Y015466D01*
X004385Y015486D01*
X004394Y015508D01*
X004399Y015531D01*
X004401Y015554D01*
X004401Y015804D01*
X004351Y015854D01*
X004351Y018954D01*
X004401Y019004D01*
X004401Y019254D01*
X004399Y019277D01*
X004394Y019300D01*
X004385Y019322D01*
X004372Y019342D01*
X004357Y019360D01*
X004339Y019375D01*
X004319Y019388D01*
X004297Y019397D01*
X004274Y019402D01*
X004251Y019404D01*
X002951Y019404D01*
X002928Y019402D01*
X002905Y019397D01*
X002883Y019388D01*
X002863Y019375D01*
X002845Y019360D01*
X002830Y019342D01*
X002817Y019322D01*
X002808Y019300D01*
X002803Y019277D01*
X002801Y019254D01*
X002801Y019004D01*
X002851Y018954D01*
X002851Y015854D01*
X002801Y015804D01*
X002801Y015554D01*
X002803Y015531D01*
X002808Y015508D01*
X002817Y015486D01*
X002830Y015466D01*
X002845Y015448D01*
X002863Y015433D01*
X002883Y015420D01*
X002905Y015411D01*
X002928Y015406D01*
X002951Y015404D01*
X006301Y015554D02*
X006301Y015804D01*
X006351Y015854D01*
X006351Y018954D01*
X006301Y019004D01*
X006301Y019254D01*
X006303Y019277D01*
X006308Y019300D01*
X006317Y019322D01*
X006330Y019342D01*
X006345Y019360D01*
X006363Y019375D01*
X006383Y019388D01*
X006405Y019397D01*
X006428Y019402D01*
X006451Y019404D01*
X007751Y019404D01*
X007774Y019402D01*
X007797Y019397D01*
X007819Y019388D01*
X007839Y019375D01*
X007857Y019360D01*
X007872Y019342D01*
X007885Y019322D01*
X007894Y019300D01*
X007899Y019277D01*
X007901Y019254D01*
X007901Y019004D01*
X007851Y018954D01*
X007851Y015854D01*
X007901Y015804D01*
X007901Y015554D01*
X007899Y015531D01*
X007894Y015508D01*
X007885Y015486D01*
X007872Y015466D01*
X007857Y015448D01*
X007839Y015433D01*
X007819Y015420D01*
X007797Y015411D01*
X007774Y015406D01*
X007751Y015404D01*
X006451Y015404D01*
X006428Y015406D01*
X006405Y015411D01*
X006383Y015420D01*
X006363Y015433D01*
X006345Y015448D01*
X006330Y015466D01*
X006317Y015486D01*
X006308Y015508D01*
X006303Y015531D01*
X006301Y015554D01*
X009801Y015554D02*
X009801Y015804D01*
X009851Y015854D01*
X009851Y018954D01*
X009801Y019004D01*
X009801Y019254D01*
X009803Y019277D01*
X009808Y019300D01*
X009817Y019322D01*
X009830Y019342D01*
X009845Y019360D01*
X009863Y019375D01*
X009883Y019388D01*
X009905Y019397D01*
X009928Y019402D01*
X009951Y019404D01*
X011251Y019404D01*
X011274Y019402D01*
X011297Y019397D01*
X011319Y019388D01*
X011339Y019375D01*
X011357Y019360D01*
X011372Y019342D01*
X011385Y019322D01*
X011394Y019300D01*
X011399Y019277D01*
X011401Y019254D01*
X011401Y019004D01*
X011351Y018954D01*
X011351Y015854D01*
X011401Y015804D01*
X011401Y015554D01*
X011399Y015531D01*
X011394Y015508D01*
X011385Y015486D01*
X011372Y015466D01*
X011357Y015448D01*
X011339Y015433D01*
X011319Y015420D01*
X011297Y015411D01*
X011274Y015406D01*
X011251Y015404D01*
X009951Y015404D01*
X009928Y015406D01*
X009905Y015411D01*
X009883Y015420D01*
X009863Y015433D01*
X009845Y015448D01*
X009830Y015466D01*
X009817Y015486D01*
X009808Y015508D01*
X009803Y015531D01*
X009801Y015554D01*
X005251Y008304D02*
X005001Y008304D01*
X004951Y008254D01*
X001851Y008254D01*
X001801Y008304D01*
X001551Y008304D01*
X001528Y008302D01*
X001505Y008297D01*
X001483Y008288D01*
X001463Y008275D01*
X001445Y008260D01*
X001430Y008242D01*
X001417Y008222D01*
X001408Y008200D01*
X001403Y008177D01*
X001401Y008154D01*
X001401Y006854D01*
X001403Y006831D01*
X001408Y006808D01*
X001417Y006786D01*
X001430Y006766D01*
X001445Y006748D01*
X001463Y006733D01*
X001483Y006720D01*
X001505Y006711D01*
X001528Y006706D01*
X001551Y006704D01*
X001801Y006704D01*
X001851Y006754D01*
X004951Y006754D01*
X005001Y006704D01*
X005251Y006704D01*
X005274Y006706D01*
X005297Y006711D01*
X005319Y006720D01*
X005339Y006733D01*
X005357Y006748D01*
X005372Y006766D01*
X005385Y006786D01*
X005394Y006808D01*
X005399Y006831D01*
X005401Y006854D01*
X005401Y008154D01*
X005399Y008177D01*
X005394Y008200D01*
X005385Y008222D01*
X005372Y008242D01*
X005357Y008260D01*
X005339Y008275D01*
X005319Y008288D01*
X005297Y008297D01*
X005274Y008302D01*
X005251Y008304D01*
X005251Y005204D02*
X005001Y005204D01*
X004951Y005154D01*
X001851Y005154D01*
X001801Y005204D01*
X001551Y005204D01*
X001528Y005202D01*
X001505Y005197D01*
X001483Y005188D01*
X001463Y005175D01*
X001445Y005160D01*
X001430Y005142D01*
X001417Y005122D01*
X001408Y005100D01*
X001403Y005077D01*
X001401Y005054D01*
X001401Y003754D01*
X001403Y003731D01*
X001408Y003708D01*
X001417Y003686D01*
X001430Y003666D01*
X001445Y003648D01*
X001463Y003633D01*
X001483Y003620D01*
X001505Y003611D01*
X001528Y003606D01*
X001551Y003604D01*
X001801Y003604D01*
X001851Y003654D01*
X004951Y003654D01*
X005001Y003604D01*
X005251Y003604D01*
X005274Y003606D01*
X005297Y003611D01*
X005319Y003620D01*
X005339Y003633D01*
X005357Y003648D01*
X005372Y003666D01*
X005385Y003686D01*
X005394Y003708D01*
X005399Y003731D01*
X005401Y003754D01*
X005401Y005054D01*
X005399Y005077D01*
X005394Y005100D01*
X005385Y005122D01*
X005372Y005142D01*
X005357Y005160D01*
X005339Y005175D01*
X005319Y005188D01*
X005297Y005197D01*
X005274Y005202D01*
X005251Y005204D01*
X007001Y002204D02*
X003201Y002204D01*
X003101Y002104D01*
X003101Y000954D01*
X007001Y002204D02*
X007101Y002104D01*
X007101Y000954D01*
X013101Y000954D02*
X013101Y002104D01*
X013201Y002204D01*
X017001Y002204D01*
X017101Y002104D01*
X017101Y000954D01*
D13*
X002501Y000729D02*
X002426Y000729D01*
X002501Y000729D02*
X002801Y001029D01*
X002876Y001029D01*
X002876Y000729D01*
X002801Y001189D02*
X002726Y001189D01*
X002651Y001264D01*
X002651Y001414D01*
X002576Y001490D01*
X002501Y001490D01*
X002426Y001414D01*
X002426Y001264D01*
X002501Y001189D01*
X002576Y001189D01*
X002651Y001264D01*
X002651Y001414D02*
X002726Y001490D01*
X002801Y001490D01*
X002876Y001414D01*
X002876Y001264D01*
X002801Y001189D01*
X002801Y001650D02*
X002501Y001650D01*
X002801Y001950D01*
X002501Y001950D01*
X002426Y001875D01*
X002426Y001725D01*
X002501Y001650D01*
X002801Y001650D02*
X002876Y001725D01*
X002876Y001875D01*
X002801Y001950D01*
X002801Y002110D02*
X002726Y002110D01*
X002651Y002185D01*
X002651Y002335D01*
X002576Y002410D01*
X002501Y002410D01*
X002426Y002335D01*
X002426Y002185D01*
X002501Y002110D01*
X002576Y002110D01*
X002651Y002185D01*
X002651Y002335D02*
X002726Y002410D01*
X002801Y002410D01*
X002876Y002335D01*
X002876Y002185D01*
X002801Y002110D01*
X004936Y002309D02*
X005236Y002309D01*
X004936Y002609D01*
X004936Y002684D01*
X005011Y002759D01*
X005161Y002759D01*
X005236Y002684D01*
X005396Y002684D02*
X005471Y002759D01*
X005622Y002759D01*
X005697Y002684D01*
X005697Y002384D01*
X005622Y002309D01*
X005471Y002309D01*
X005396Y002384D01*
X005396Y002534D01*
X005547Y002534D01*
X005857Y002309D02*
X006157Y002309D01*
X006157Y002759D01*
X005857Y002759D01*
X006007Y002534D02*
X006157Y002534D01*
X006317Y002534D02*
X006392Y002459D01*
X006617Y002459D01*
X006467Y002459D02*
X006317Y002309D01*
X006317Y002534D02*
X006317Y002684D01*
X006392Y002759D01*
X006617Y002759D01*
X006617Y002309D01*
X006777Y002459D02*
X006777Y002759D01*
X006777Y002459D02*
X006928Y002309D01*
X007078Y002459D01*
X007078Y002759D01*
X009418Y001579D02*
X009418Y001229D01*
X009534Y001229D02*
X009301Y001229D01*
X009669Y001287D02*
X009727Y001229D01*
X009844Y001229D01*
X009903Y001287D01*
X009669Y001521D01*
X009669Y001287D01*
X009534Y001462D02*
X009418Y001579D01*
X009669Y001521D02*
X009727Y001579D01*
X009844Y001579D01*
X009903Y001521D01*
X009903Y001287D01*
X010037Y001287D02*
X010096Y001229D01*
X010213Y001229D01*
X010271Y001287D01*
X010037Y001521D01*
X010037Y001287D01*
X010037Y001521D02*
X010096Y001579D01*
X010213Y001579D01*
X010271Y001521D01*
X010271Y001287D01*
X010406Y001404D02*
X010639Y001404D01*
X010464Y001579D01*
X010464Y001229D01*
X010774Y001229D02*
X010774Y001579D01*
X011007Y001579D02*
X010774Y001229D01*
X011007Y001229D02*
X011007Y001579D01*
X011259Y001579D02*
X011259Y001229D01*
X011376Y001229D02*
X011142Y001229D01*
X011376Y001462D02*
X011259Y001579D01*
X012936Y002384D02*
X013011Y002309D01*
X013161Y002309D01*
X013236Y002384D01*
X013396Y002384D02*
X013396Y002534D01*
X013547Y002534D01*
X013697Y002384D02*
X013622Y002309D01*
X013471Y002309D01*
X013396Y002384D01*
X013697Y002384D02*
X013697Y002684D01*
X013622Y002759D01*
X013471Y002759D01*
X013396Y002684D01*
X013236Y002684D02*
X013161Y002759D01*
X013011Y002759D01*
X012936Y002684D01*
X012936Y002609D01*
X013011Y002534D01*
X012936Y002459D01*
X012936Y002384D01*
X013011Y002534D02*
X013086Y002534D01*
X013857Y002309D02*
X014157Y002309D01*
X014157Y002759D01*
X013857Y002759D01*
X014007Y002534D02*
X014157Y002534D01*
X014317Y002534D02*
X014392Y002459D01*
X014617Y002459D01*
X014467Y002459D02*
X014317Y002309D01*
X014317Y002534D02*
X014317Y002684D01*
X014392Y002759D01*
X014617Y002759D01*
X014617Y002309D01*
X014777Y002459D02*
X014777Y002759D01*
X015078Y002759D02*
X015078Y002459D01*
X014928Y002309D01*
X014777Y002459D01*
X017326Y001994D02*
X017326Y001844D01*
X017401Y001768D01*
X017476Y001768D01*
X017551Y001844D01*
X017551Y001994D01*
X017476Y002069D01*
X017401Y002069D01*
X017326Y001994D01*
X017551Y001994D02*
X017626Y002069D01*
X017701Y002069D01*
X017776Y001994D01*
X017776Y001844D01*
X017701Y001768D01*
X017626Y001768D01*
X017551Y001844D01*
X017401Y001608D02*
X017326Y001533D01*
X017326Y001383D01*
X017401Y001308D01*
X017701Y001608D01*
X017401Y001608D01*
X017401Y001308D02*
X017701Y001308D01*
X017776Y001383D01*
X017776Y001533D01*
X017701Y001608D01*
X017701Y001148D02*
X017626Y001148D01*
X017551Y001073D01*
X017551Y000923D01*
X017626Y000848D01*
X017701Y000848D01*
X017776Y000923D01*
X017776Y001073D01*
X017701Y001148D01*
X017551Y001073D02*
X017476Y001148D01*
X017401Y001148D01*
X017326Y001073D01*
X017326Y000923D01*
X017401Y000848D01*
X017476Y000848D01*
X017551Y000923D01*
X017701Y000688D02*
X017401Y000387D01*
X017326Y000387D01*
X017776Y000387D02*
X017776Y000688D01*
X017701Y000688D01*
X011132Y008179D02*
X010982Y008179D01*
X010907Y008254D01*
X010907Y008329D01*
X010982Y008404D01*
X011132Y008404D01*
X011207Y008479D01*
X011207Y008554D01*
X011132Y008629D01*
X010982Y008629D01*
X010907Y008554D01*
X010907Y008479D01*
X010982Y008404D01*
X011132Y008404D02*
X011207Y008329D01*
X011207Y008254D01*
X011132Y008179D01*
X010747Y008329D02*
X010747Y008629D01*
X010747Y008329D02*
X010596Y008179D01*
X010446Y008329D01*
X010446Y008629D01*
X010286Y008554D02*
X010211Y008629D01*
X010061Y008629D01*
X009986Y008554D01*
X009986Y008479D01*
X010286Y008179D01*
X009986Y008179D01*
X009626Y008253D02*
X009626Y008028D01*
X009176Y008028D01*
X009326Y008028D02*
X009326Y008253D01*
X009401Y008328D01*
X009551Y008328D01*
X009626Y008253D01*
X009326Y008178D02*
X009176Y008328D01*
X009176Y008488D02*
X009176Y008563D01*
X009251Y008563D01*
X009251Y008488D01*
X009176Y008488D01*
X009176Y008719D02*
X009476Y009019D01*
X009551Y009019D01*
X009626Y008944D01*
X009626Y008794D01*
X009551Y008719D01*
X009176Y008719D02*
X009176Y009019D01*
X009251Y009258D02*
X009176Y009333D01*
X009176Y009483D01*
X009251Y009558D01*
X009401Y009558D01*
X009401Y009408D01*
X009551Y009258D02*
X009251Y009258D01*
X009551Y009258D02*
X009626Y009333D01*
X009626Y009483D01*
X009551Y009558D01*
X009551Y009719D02*
X009626Y009794D01*
X009626Y009944D01*
X009551Y010019D01*
X009476Y010019D01*
X009176Y009719D01*
X009176Y010019D01*
X009326Y011079D02*
X009476Y011229D01*
X009401Y011229D02*
X009626Y011229D01*
X009626Y011079D02*
X009626Y011529D01*
X009401Y011529D01*
X009326Y011454D01*
X009326Y011304D01*
X009401Y011229D01*
X009401Y012079D02*
X009326Y012154D01*
X009326Y012304D01*
X009476Y012304D01*
X009626Y012154D02*
X009551Y012079D01*
X009401Y012079D01*
X009626Y012154D02*
X009626Y012454D01*
X009551Y012529D01*
X009401Y012529D01*
X009326Y012454D01*
X010576Y011569D02*
X010726Y011719D01*
X011026Y011719D01*
X011026Y011419D02*
X010726Y011419D01*
X010576Y011569D01*
X010651Y011258D02*
X010576Y011183D01*
X010576Y011033D01*
X010651Y010958D01*
X010726Y010958D01*
X010801Y011033D01*
X010801Y011183D01*
X010726Y011258D01*
X010651Y011258D01*
X010801Y011183D02*
X010876Y011258D01*
X010951Y011258D01*
X011026Y011183D01*
X011026Y011033D01*
X010951Y010958D01*
X010876Y010958D01*
X010801Y011033D01*
X010801Y012179D02*
X011026Y012179D01*
X011026Y012629D01*
X010801Y012629D01*
X010726Y012554D01*
X010726Y012479D01*
X010801Y012404D01*
X011026Y012404D01*
X010801Y012404D02*
X010726Y012329D01*
X010726Y012254D01*
X010801Y012179D01*
X010876Y009819D02*
X010951Y009819D01*
X011026Y009744D01*
X011026Y009594D01*
X010951Y009519D01*
X010951Y009358D02*
X010876Y009358D01*
X010801Y009283D01*
X010801Y009058D01*
X010576Y009058D02*
X011026Y009058D01*
X011026Y009283D01*
X010951Y009358D01*
X010801Y009283D02*
X010726Y009358D01*
X010651Y009358D01*
X010576Y009283D01*
X010576Y009058D01*
X010576Y009519D02*
X010876Y009819D01*
X010576Y009819D02*
X010576Y009519D01*
X014515Y009704D02*
X014590Y009629D01*
X014740Y009629D01*
X014815Y009704D01*
X014815Y009854D02*
X014665Y009929D01*
X014590Y009929D01*
X014515Y009854D01*
X014515Y009704D01*
X014515Y010079D02*
X014815Y010079D01*
X014815Y009854D01*
X014976Y009704D02*
X015051Y009629D01*
X015201Y009629D01*
X015276Y009704D01*
X015276Y010004D01*
X015201Y010079D01*
X015051Y010079D01*
X014976Y010004D01*
X015071Y016629D02*
X014996Y016704D01*
X015071Y016629D02*
X015221Y016629D01*
X015297Y016704D01*
X015297Y017004D01*
X015221Y017079D01*
X015071Y017079D01*
X014996Y017004D01*
X014836Y016854D02*
X014611Y016854D01*
X014536Y016779D01*
X014536Y016704D01*
X014611Y016629D01*
X014761Y016629D01*
X014836Y016704D01*
X014836Y016854D01*
X014686Y017004D01*
X014536Y017079D01*
X011976Y019579D02*
X011976Y020029D01*
X011751Y020029D01*
X011676Y019954D01*
X011676Y019804D01*
X011751Y019729D01*
X011976Y019729D01*
X011826Y019729D02*
X011676Y019579D01*
X011515Y019654D02*
X011440Y019579D01*
X011290Y019579D01*
X011215Y019654D01*
X011215Y019729D01*
X011290Y019804D01*
X011365Y019804D01*
X011290Y019804D02*
X011215Y019879D01*
X011215Y019954D01*
X011290Y020029D01*
X011440Y020029D01*
X011515Y019954D01*
X008476Y020029D02*
X008476Y019579D01*
X008476Y019729D02*
X008251Y019729D01*
X008176Y019804D01*
X008176Y019954D01*
X008251Y020029D01*
X008476Y020029D01*
X008326Y019729D02*
X008176Y019579D01*
X008015Y019579D02*
X007715Y019879D01*
X007715Y019954D01*
X007790Y020029D01*
X007940Y020029D01*
X008015Y019954D01*
X008015Y019579D02*
X007715Y019579D01*
X004876Y019579D02*
X004876Y020029D01*
X004651Y020029D01*
X004576Y019954D01*
X004576Y019804D01*
X004651Y019729D01*
X004876Y019729D01*
X004726Y019729D02*
X004576Y019579D01*
X004415Y019579D02*
X004115Y019579D01*
X004265Y019579D02*
X004265Y020029D01*
X004415Y019879D01*
X001876Y014879D02*
X001425Y014879D01*
X001576Y014729D01*
X001425Y014579D01*
X001876Y014579D01*
X001801Y014419D02*
X001876Y014344D01*
X001876Y014193D01*
X001801Y014118D01*
X001876Y013958D02*
X001425Y013958D01*
X001500Y014118D02*
X001425Y014193D01*
X001425Y014344D01*
X001500Y014419D01*
X001801Y014419D01*
X002025Y014379D02*
X002326Y014379D01*
X002476Y014229D01*
X002326Y014079D01*
X002025Y014079D01*
X002025Y013919D02*
X002025Y013693D01*
X002100Y013618D01*
X002401Y013618D01*
X002476Y013693D01*
X002476Y013919D01*
X002025Y013919D01*
X001876Y013958D02*
X001876Y013658D01*
X001876Y013498D02*
X001425Y013498D01*
X001425Y013273D01*
X001500Y013198D01*
X001651Y013198D01*
X001726Y013273D01*
X001726Y013498D01*
X001726Y013348D02*
X001876Y013198D01*
X002025Y013233D02*
X002100Y013158D01*
X002401Y013158D01*
X002476Y013233D01*
X002476Y013458D01*
X002025Y013458D01*
X002025Y013233D01*
X003025Y013233D02*
X003025Y013458D01*
X003476Y013458D01*
X003476Y013233D01*
X003401Y013158D01*
X003100Y013158D01*
X003025Y013233D01*
X003025Y013618D02*
X003476Y013618D01*
X003025Y013919D01*
X003476Y013919D01*
X003401Y014079D02*
X003251Y014079D01*
X003251Y014229D01*
X003401Y014379D02*
X003476Y014304D01*
X003476Y014154D01*
X003401Y014079D01*
X003401Y014379D02*
X003100Y014379D01*
X003025Y014304D01*
X003025Y014154D01*
X003100Y014079D01*
X004525Y014054D02*
X004600Y013979D01*
X004901Y013979D01*
X004976Y014054D01*
X004976Y014279D01*
X004525Y014279D01*
X004525Y014054D01*
X004676Y013819D02*
X004525Y013668D01*
X004676Y013518D01*
X004976Y013518D01*
X004751Y013518D02*
X004751Y013819D01*
X004676Y013819D02*
X004976Y013819D01*
X004976Y013208D02*
X004525Y013208D01*
X004525Y013358D02*
X004525Y013058D01*
X005625Y013158D02*
X006076Y013158D01*
X005926Y013158D02*
X005625Y012858D01*
X005851Y013083D02*
X006076Y012858D01*
X006076Y013318D02*
X006076Y013619D01*
X005625Y013619D01*
X005700Y013779D02*
X005625Y013854D01*
X005625Y014004D01*
X005700Y014079D01*
X006001Y014079D01*
X006076Y014004D01*
X006076Y013854D01*
X006001Y013779D01*
X005376Y011929D02*
X005151Y011929D01*
X005076Y011854D01*
X005076Y011704D01*
X005151Y011629D01*
X005376Y011629D01*
X005376Y011479D02*
X005376Y011929D01*
X005226Y011629D02*
X005076Y011479D01*
X004915Y011479D02*
X004615Y011479D01*
X004765Y011479D02*
X004765Y011929D01*
X004915Y011779D01*
X004455Y011854D02*
X004380Y011929D01*
X004230Y011929D01*
X004155Y011854D01*
X004155Y011779D01*
X004230Y011704D01*
X004155Y011629D01*
X004155Y011554D01*
X004230Y011479D01*
X004380Y011479D01*
X004455Y011554D01*
X004305Y011704D02*
X004230Y011704D01*
X004411Y008929D02*
X004561Y008929D01*
X004636Y008854D01*
X004411Y008929D02*
X004336Y008854D01*
X004336Y008779D01*
X004636Y008479D01*
X004336Y008479D01*
X004796Y008479D02*
X005097Y008479D01*
X004946Y008479D02*
X004946Y008929D01*
X005097Y008779D01*
X005257Y008704D02*
X005332Y008629D01*
X005557Y008629D01*
X005557Y008479D02*
X005557Y008929D01*
X005332Y008929D01*
X005257Y008854D01*
X005257Y008704D01*
X005407Y008629D02*
X005257Y008479D01*
X005151Y005829D02*
X005076Y005754D01*
X005076Y005604D01*
X005151Y005529D01*
X005376Y005529D01*
X005376Y005379D02*
X005376Y005829D01*
X005151Y005829D01*
X004915Y005679D02*
X004765Y005829D01*
X004765Y005379D01*
X004915Y005379D02*
X004615Y005379D01*
X004455Y005379D02*
X004155Y005379D01*
X004305Y005379D02*
X004305Y005829D01*
X004455Y005679D01*
X005076Y005379D02*
X005226Y005529D01*
D14*
X003281Y001964D03*
X013281Y001964D03*
D15*
X013376Y000754D03*
X016826Y000754D03*
X006826Y000754D03*
X003376Y000754D03*
D16*
X004101Y000654D03*
X005101Y000654D03*
X006101Y000654D03*
X014101Y000654D03*
X015101Y000654D03*
X016101Y000654D03*
D17*
X015601Y000754D03*
X014601Y000754D03*
X005601Y000754D03*
X004601Y000754D03*
D18*
X008701Y001404D02*
X008951Y001404D01*
X008951Y001904D01*
X009451Y001904D01*
X009451Y000904D01*
X008951Y000904D01*
X008951Y001404D01*
X009451Y000904D02*
X011451Y000904D01*
X011451Y001404D01*
X011701Y001404D01*
X011451Y001404D02*
X011451Y001904D01*
X009451Y001904D01*
D19*
X010664Y002174D02*
X010970Y002174D01*
X010817Y002174D02*
X010817Y002634D01*
X010970Y002481D01*
X011124Y002558D02*
X011201Y002634D01*
X011431Y002634D01*
X011431Y002174D01*
X011201Y002174D01*
X011124Y002251D01*
X011124Y002558D01*
D20*
X010601Y015349D03*
X007101Y015349D03*
X003601Y015349D03*
X003601Y019459D03*
X007101Y019459D03*
X010601Y019459D03*
D21*
X005456Y010604D03*
X005456Y007504D03*
X005456Y004404D03*
X001346Y004404D03*
X001346Y007504D03*
X001346Y010604D03*
M02*
